<mxfile host="app.diagrams.net" modified="2024-05-29T11:13:45.197Z" agent="Mozilla/5.0 (Windows NT 10.0; Win64; x64) AppleWebKit/537.36 (KHTML, like Gecko) Chrome/125.0.0.0 Safari/537.36" version="24.4.4" etag="YJHu5P09UR65BLJhXwx2" type="device">
  <diagram id="RciI2u_E4lREElZuEocA" name="Page-1">
    <mxGraphModel dx="1434" dy="786" grid="1" gridSize="10" guides="1" tooltips="1" connect="1" arrows="1" fold="1" page="1" pageScale="1" pageWidth="827" pageHeight="1169" math="0" shadow="0">
      <root>
        <mxCell id="0" />
        <mxCell id="1" parent="0" />
        <mxCell id="ng4jrMUnrhS4BVdKmEGG-2" style="edgeStyle=orthogonalEdgeStyle;rounded=0;orthogonalLoop=1;jettySize=auto;html=1;" edge="1" parent="1" source="ng4jrMUnrhS4BVdKmEGG-1" target="ng4jrMUnrhS4BVdKmEGG-3">
          <mxGeometry relative="1" as="geometry">
            <mxPoint x="690" y="190" as="targetPoint" />
          </mxGeometry>
        </mxCell>
        <mxCell id="ng4jrMUnrhS4BVdKmEGG-4" style="edgeStyle=orthogonalEdgeStyle;rounded=0;orthogonalLoop=1;jettySize=auto;html=1;exitX=0.5;exitY=1;exitDx=0;exitDy=0;" edge="1" parent="1" source="ng4jrMUnrhS4BVdKmEGG-1" target="ng4jrMUnrhS4BVdKmEGG-5">
          <mxGeometry relative="1" as="geometry">
            <mxPoint x="414" y="260" as="targetPoint" />
          </mxGeometry>
        </mxCell>
        <mxCell id="ng4jrMUnrhS4BVdKmEGG-6" style="edgeStyle=orthogonalEdgeStyle;rounded=0;orthogonalLoop=1;jettySize=auto;html=1;" edge="1" parent="1" source="ng4jrMUnrhS4BVdKmEGG-1" target="ng4jrMUnrhS4BVdKmEGG-7">
          <mxGeometry relative="1" as="geometry">
            <mxPoint x="140" y="210" as="targetPoint" />
          </mxGeometry>
        </mxCell>
        <mxCell id="ng4jrMUnrhS4BVdKmEGG-1" value="Home page" style="rounded=0;whiteSpace=wrap;html=1;" vertex="1" parent="1">
          <mxGeometry x="354" y="80" width="120" height="60" as="geometry" />
        </mxCell>
        <mxCell id="ng4jrMUnrhS4BVdKmEGG-3" value="Contact me" style="rounded=0;whiteSpace=wrap;html=1;" vertex="1" parent="1">
          <mxGeometry x="630" y="160" width="120" height="60" as="geometry" />
        </mxCell>
        <mxCell id="ng4jrMUnrhS4BVdKmEGG-8" style="edgeStyle=orthogonalEdgeStyle;rounded=0;orthogonalLoop=1;jettySize=auto;html=1;" edge="1" parent="1" source="ng4jrMUnrhS4BVdKmEGG-5" target="ng4jrMUnrhS4BVdKmEGG-9">
          <mxGeometry relative="1" as="geometry">
            <mxPoint x="280" y="360" as="targetPoint" />
          </mxGeometry>
        </mxCell>
        <mxCell id="ng4jrMUnrhS4BVdKmEGG-10" style="edgeStyle=orthogonalEdgeStyle;rounded=0;orthogonalLoop=1;jettySize=auto;html=1;" edge="1" parent="1" source="ng4jrMUnrhS4BVdKmEGG-5" target="ng4jrMUnrhS4BVdKmEGG-11">
          <mxGeometry relative="1" as="geometry">
            <mxPoint x="580" y="330" as="targetPoint" />
          </mxGeometry>
        </mxCell>
        <mxCell id="ng4jrMUnrhS4BVdKmEGG-5" value="Services" style="rounded=0;whiteSpace=wrap;html=1;" vertex="1" parent="1">
          <mxGeometry x="354" y="230" width="120" height="60" as="geometry" />
        </mxCell>
        <mxCell id="ng4jrMUnrhS4BVdKmEGG-7" value="About me" style="rounded=0;whiteSpace=wrap;html=1;" vertex="1" parent="1">
          <mxGeometry x="80" y="160" width="120" height="60" as="geometry" />
        </mxCell>
        <mxCell id="ng4jrMUnrhS4BVdKmEGG-14" style="edgeStyle=orthogonalEdgeStyle;rounded=0;orthogonalLoop=1;jettySize=auto;html=1;" edge="1" parent="1" source="ng4jrMUnrhS4BVdKmEGG-9" target="ng4jrMUnrhS4BVdKmEGG-15">
          <mxGeometry relative="1" as="geometry">
            <mxPoint x="280" y="450" as="targetPoint" />
          </mxGeometry>
        </mxCell>
        <mxCell id="ng4jrMUnrhS4BVdKmEGG-9" value="Enterprise support" style="rounded=0;whiteSpace=wrap;html=1;" vertex="1" parent="1">
          <mxGeometry x="220" y="330" width="120" height="60" as="geometry" />
        </mxCell>
        <mxCell id="ng4jrMUnrhS4BVdKmEGG-12" style="edgeStyle=orthogonalEdgeStyle;rounded=0;orthogonalLoop=1;jettySize=auto;html=1;" edge="1" parent="1" source="ng4jrMUnrhS4BVdKmEGG-11" target="ng4jrMUnrhS4BVdKmEGG-13">
          <mxGeometry relative="1" as="geometry">
            <mxPoint x="580" y="480" as="targetPoint" />
          </mxGeometry>
        </mxCell>
        <mxCell id="ng4jrMUnrhS4BVdKmEGG-11" value="Cyber security" style="rounded=0;whiteSpace=wrap;html=1;" vertex="1" parent="1">
          <mxGeometry x="520" y="330" width="120" height="60" as="geometry" />
        </mxCell>
        <mxCell id="ng4jrMUnrhS4BVdKmEGG-22" style="edgeStyle=orthogonalEdgeStyle;rounded=0;orthogonalLoop=1;jettySize=auto;html=1;" edge="1" parent="1" source="ng4jrMUnrhS4BVdKmEGG-13" target="ng4jrMUnrhS4BVdKmEGG-23">
          <mxGeometry relative="1" as="geometry">
            <mxPoint x="480" y="540" as="targetPoint" />
          </mxGeometry>
        </mxCell>
        <mxCell id="ng4jrMUnrhS4BVdKmEGG-24" style="edgeStyle=orthogonalEdgeStyle;rounded=0;orthogonalLoop=1;jettySize=auto;html=1;" edge="1" parent="1" source="ng4jrMUnrhS4BVdKmEGG-13" target="ng4jrMUnrhS4BVdKmEGG-25">
          <mxGeometry relative="1" as="geometry">
            <mxPoint x="610" y="560" as="targetPoint" />
          </mxGeometry>
        </mxCell>
        <mxCell id="ng4jrMUnrhS4BVdKmEGG-27" style="edgeStyle=orthogonalEdgeStyle;rounded=0;orthogonalLoop=1;jettySize=auto;html=1;" edge="1" parent="1" source="ng4jrMUnrhS4BVdKmEGG-13" target="ng4jrMUnrhS4BVdKmEGG-28">
          <mxGeometry relative="1" as="geometry">
            <mxPoint x="750" y="580" as="targetPoint" />
          </mxGeometry>
        </mxCell>
        <mxCell id="ng4jrMUnrhS4BVdKmEGG-13" value="Blog posts" style="rounded=0;whiteSpace=wrap;html=1;" vertex="1" parent="1">
          <mxGeometry x="520" y="450" width="120" height="60" as="geometry" />
        </mxCell>
        <mxCell id="ng4jrMUnrhS4BVdKmEGG-16" style="edgeStyle=orthogonalEdgeStyle;rounded=0;orthogonalLoop=1;jettySize=auto;html=1;" edge="1" parent="1" source="ng4jrMUnrhS4BVdKmEGG-15" target="ng4jrMUnrhS4BVdKmEGG-17">
          <mxGeometry relative="1" as="geometry">
            <mxPoint x="70" y="570" as="targetPoint" />
          </mxGeometry>
        </mxCell>
        <mxCell id="ng4jrMUnrhS4BVdKmEGG-18" style="edgeStyle=orthogonalEdgeStyle;rounded=0;orthogonalLoop=1;jettySize=auto;html=1;" edge="1" parent="1" source="ng4jrMUnrhS4BVdKmEGG-15" target="ng4jrMUnrhS4BVdKmEGG-19">
          <mxGeometry relative="1" as="geometry">
            <mxPoint x="280" y="580" as="targetPoint" />
          </mxGeometry>
        </mxCell>
        <mxCell id="ng4jrMUnrhS4BVdKmEGG-15" value="Blog posts" style="rounded=0;whiteSpace=wrap;html=1;" vertex="1" parent="1">
          <mxGeometry x="220" y="460" width="120" height="60" as="geometry" />
        </mxCell>
        <mxCell id="ng4jrMUnrhS4BVdKmEGG-17" value="Blog post" style="rounded=0;whiteSpace=wrap;html=1;" vertex="1" parent="1">
          <mxGeometry x="10" y="540" width="120" height="60" as="geometry" />
        </mxCell>
        <mxCell id="ng4jrMUnrhS4BVdKmEGG-19" value="Blog post&amp;nbsp;" style="rounded=0;whiteSpace=wrap;html=1;" vertex="1" parent="1">
          <mxGeometry x="150" y="540" width="120" height="60" as="geometry" />
        </mxCell>
        <mxCell id="ng4jrMUnrhS4BVdKmEGG-21" value="Blog post&amp;nbsp;" style="rounded=0;whiteSpace=wrap;html=1;" vertex="1" parent="1">
          <mxGeometry x="140" y="620" width="120" height="60" as="geometry" />
        </mxCell>
        <mxCell id="ng4jrMUnrhS4BVdKmEGG-23" value="Blog post&amp;nbsp;" style="rounded=0;whiteSpace=wrap;html=1;" vertex="1" parent="1">
          <mxGeometry x="390" y="585" width="120" height="60" as="geometry" />
        </mxCell>
        <mxCell id="ng4jrMUnrhS4BVdKmEGG-25" value="Blog post&lt;div&gt;&lt;br&gt;&lt;/div&gt;" style="rounded=0;whiteSpace=wrap;html=1;" vertex="1" parent="1">
          <mxGeometry x="530" y="540" width="120" height="60" as="geometry" />
        </mxCell>
        <mxCell id="ng4jrMUnrhS4BVdKmEGG-26" style="edgeStyle=orthogonalEdgeStyle;rounded=0;orthogonalLoop=1;jettySize=auto;html=1;exitX=1;exitY=0.5;exitDx=0;exitDy=0;entryX=1;entryY=0.633;entryDx=0;entryDy=0;entryPerimeter=0;" edge="1" parent="1" source="ng4jrMUnrhS4BVdKmEGG-15" target="ng4jrMUnrhS4BVdKmEGG-21">
          <mxGeometry relative="1" as="geometry" />
        </mxCell>
        <mxCell id="ng4jrMUnrhS4BVdKmEGG-28" value="Blog post&amp;nbsp;" style="rounded=0;whiteSpace=wrap;html=1;" vertex="1" parent="1">
          <mxGeometry x="690" y="550" width="120" height="60" as="geometry" />
        </mxCell>
      </root>
    </mxGraphModel>
  </diagram>
</mxfile>
